PathFileType	4	(X/Y/Z)	CPRIT_Patient3_L_KneeIso_Processed.TRC
DataRate	CameraRate	NumFrames	NumMarkers	Units	OrigDataRate	OrigDataStartFrame	OrigNumFrames
150.195058517555	150.195058517555	4	36	m	150.195058517555	579	       771
Frame#	Time	R.Heel			R.Midfoot.Superior			R.Midfoot.Lateral			R.Toe			L.Heel			L.Midfoot.Superior			L.Midfoot.Lateral			L.Toe			R.Shank.Superior			R.Shank.Inferior			R.Shank.Lateral			R.Shank.Posterior			L.Shank.Superior			L.Shank.Inferior			L.Shank.Posterior			L.Shank.Lateral			R.Patella			L.Patella			R.Thigh.Superior			R.Thigh.Lateral			R.Thigh.Inferior			L.Thigh.Superior			L.Thigh.Inferior			L.Thigh.Lateral			L.Asis			R.Asis			R.Shoulder			L.Shoulder			C7			J.Notch			Sternum			Thoracic			L.Elbow			L.Wrist			R.Elbow			R.Wrist			
		X1	Y1	Z1	X2	Y2	Z2	X3	Y3	Z3	X4	Y4	Z4	X5	Y5	Z5	X6	Y6	Z6	X7	Y7	Z7	X8	Y8	Z8	X9	Y9	Z9	X10	Y10	Z10	X11	Y11	Z11	X12	Y12	Z12	X13	Y13	Z13	X14	Y14	Z14	X15	Y15	Z15	X16	Y16	Z16	X17	Y17	Z17	X18	Y18	Z18	X19	Y19	Z19	X20	Y20	Z20	X21	Y21	Z21	X22	Y22	Z22	X23	Y23	Z23	X24	Y24	Z24	X25	Y25	Z25	X26	Y26	Z26	X27	Y27	Z27	X28	Y28	Z28	X29	Y29	Z29	X30	Y30	Z30	X31	Y31	Z31	X32	Y32	Z32	X33	Y33	Z33	X34	Y34	Z34	X35	Y35	Z35	X36	Y36	Z36	

579	3.848329004329	0.480672795799	0.049356726913	0.082898964268	0.647337871827	0.098023149677	0.116264588650	0.549779439851	0.038035515151	0.147884876856	0.762012100908	0.054656272818	0.140188669075	0.272197991912	0.458240617796	-0.032478108516	0.389119779778	0.328554091542	-0.073690424138	0.287770941396	0.386709408570	-0.101225596242	0.400006354567	0.205694400205	-0.090329620608	0.608275749234	0.357399276834	0.148789228609	0.598826796702	0.237738334473	0.138006536224	0.529373533156	0.289581198104	0.194829042261	0.469943781503	0.356240893658	0.140153701216	0.630826824432	0.430544317304	-0.090707522639	0.503382673430	0.409675793991	-0.073500000613	0.557077922784	0.556325843469	-0.083204793969	0.523913197887	0.473630351383	-0.133408070430	0.637098309220	0.466141039740	0.135868995184	0.771324581133	0.484659212442	-0.090216137116	0.689951824849	0.776005769515	0.168470273027	0.608094232736	0.706226900780	0.222884476798	0.677100382077	0.618019604576	0.135908013651	0.699860938551	0.820621016034	-0.095053783850	0.761016857327	0.670996346895	-0.089382206657	0.640455796849	0.728244387359	-0.149667687977	0.651281021524	0.955766731556	-0.073425728696	0.680810322117	0.936817753109	0.160013650397	0.571026278415	1.444965317385	0.230930263096	0.598337529921	1.435213694164	-0.098015724454	0.541958219470	1.479867611404	0.083170929013	0.663001630237	1.380990278800	0.071258721394	0.718463884417	1.201149209919	0.058321621822	0.460027418595	1.323826344910	0.073410907055	0.546561959897	1.173107183406	-0.275020825192	0.614513980378	0.988366743738	-0.432107953770	0.549963923772	1.139558957391	0.388163328826	0.761532147097	0.990676548575	0.414549009023	
580	3.854987012987	0.480672375887	0.049356588896	0.082898192892	0.647335674022	0.098023417835	0.116263819669	0.549778978192	0.038035394451	0.147885199954	0.762011080291	0.054658303119	0.140189283395	0.272161155134	0.457267704376	-0.032610884255	0.389365997709	0.327841066468	-0.073811717787	0.287897056338	0.385777182040	-0.101325337535	0.400520556261	0.205007156121	-0.090455258700	0.608237758503	0.357403204795	0.148790792184	0.598806639167	0.237742418070	0.138010648170	0.529347102248	0.289573213164	0.194834880545	0.469914335261	0.356221414222	0.140148532179	0.630855251279	0.430356557029	-0.090733753621	0.503451697819	0.409217660234	-0.073532847610	0.556840679068	0.555961031637	-0.083228321592	0.523872582819	0.473213704592	-0.133449316759	0.637044067278	0.466143249830	0.135862870768	0.771259248405	0.484690036843	-0.090127107033	0.689863536998	0.776008410519	0.168475556865	0.608016462588	0.706227835590	0.222886557968	0.677028465335	0.618024167719	0.135912902555	0.699775391381	0.820632289367	-0.095032228953	0.760899913230	0.670989542182	-0.089326686225	0.640361441080	0.728246037952	-0.149645254356	0.651191517917	0.955775826406	-0.073415466391	0.680655074793	0.936784408242	0.160058025512	0.570966315969	1.444959878263	0.230975553547	0.598307549487	1.435201116386	-0.097988618200	0.541910313274	1.479871636710	0.083206364688	0.662941318294	1.380979669434	0.071298945355	0.718371815942	1.201120530658	0.058362079685	0.459966599103	1.323838766971	0.073443971944	0.546560508660	1.173097345942	-0.275000018085	0.614515402130	0.988366773764	-0.432099133777	0.549938922756	1.139542953473	0.388193557777	0.761519435809	0.990675492767	0.414557636827	
581	3.861645021645	0.480671972136	0.049356404533	0.082897447433	0.647333575868	0.098023664220	0.116263084409	0.549778546826	0.038035211527	0.147885575196	0.762010002983	0.054660338426	0.140189795925	0.272140872824	0.456144457353	-0.032754425999	0.389670112456	0.327016235190	-0.073942182462	0.288062872317	0.384699289841	-0.101425269740	0.401132172113	0.204212036004	-0.090590494279	0.608201117554	0.357406652174	0.148792732286	0.598787097911	0.237746970837	0.138015551795	0.529321648080	0.289565094709	0.194840886476	0.469885902983	0.356202607547	0.140143988585	0.630909477314	0.430138699852	-0.090758960203	0.503552839875	0.408687400801	-0.073565761418	0.556590552775	0.555538444675	-0.083248400180	0.523847012703	0.472731812409	-0.133490781603	0.636991604066	0.466145734285	0.135857674591	0.771202459657	0.484723311683	-0.090024581639	0.689777303538	0.776011145629	0.168479902557	0.607940486969	0.706229292186	0.222888736818	0.676958720860	0.618028861557	0.135917614306	0.699692330968	0.820642942138	-0.095008127835	0.760782926581	0.670981400939	-0.089262767261	0.640269333259	0.728244394558	-0.149618115980	0.651101812161	0.955783934677	-0.073406423137	0.680508572050	0.936754778418	0.160096141785	0.570906403044	1.444952807763	0.231019168000	0.598277485120	1.435188957248	-0.097962703228	0.541863085195	1.479875133989	0.083240401341	0.662881218671	1.380968403956	0.071337505700	0.718280471234	1.201091456299	0.058399903348	0.459905833338	1.323850733585	0.073474859926	0.546559187877	1.173088199898	-0.274980651660	0.614516907176	0.988366875099	-0.432091382720	0.549913214548	1.139525019785	0.388220634933	0.761507137331	0.990674183179	0.414565033811	
582	3.868303030303	0.480671581988	0.049356165131	0.082896735087	0.647331594342	0.098023931069	0.116262442586	0.549778132435	0.038034959565	0.147885991873	0.762008869200	0.054662396179	0.140190206868	0.272138812446	0.454875593896	-0.032905965080	0.390031988324	0.326083738553	-0.074080901908	0.288269312245	0.383480998066	-0.101523037703	0.401839851426	0.203313542817	-0.090735556781	0.608165630726	0.357409704460	0.148795236447	0.598768019761	0.237752094186	0.138021357497	0.529296956144	0.289556868621	0.194847087174	0.469858135782	0.356184611086	0.140140278638	0.630989850373	0.429892365135	-0.090783090624	0.503686762715	0.408087708286	-0.073599229271	0.556329271889	0.555060295639	-0.083263713491	0.523836912799	0.472187707145	-0.133531678362	0.636940736733	0.466148545826	0.135853623791	0.771154542110	0.484759416986	-0.089910194753	0.689692913770	0.776013934543	0.168483438740	0.607866003945	0.706231263159	0.222891118900	0.676890853944	0.618033673368	0.135922288482	0.699611731869	0.820653158707	-0.094981478411	0.760666237810	0.670972399003	-0.089191120188	0.640179598277	0.728239854342	-0.149586630806	0.651011831802	0.955791046125	-0.073398496972	0.680370777569	0.936728831325	0.160128145708	0.570846542356	1.444944187950	0.231060876099	0.598247280818	1.435177227835	-0.097938123163	0.541816460914	1.479878153971	0.083272930944	0.662821342167	1.380956554742	0.071374280174	0.718189815161	1.201062001511	0.058434957533	0.459845105586	1.323862273265	0.073503426756	0.546557813892	1.173079727837	-0.274962822815	0.614518430414	0.988367039439	-0.432084741816	0.549886863459	1.139505214132	0.388244370739	0.761495290938	0.990672642450	0.414571155232	
